<?xml version="1.0" encoding="utf-8"?>
<!DOCTYPE svg PUBLIC "-//W3C//DTD SVG 20010904//EN" "http://www.w3.org/TR/2001/REC-SVG-20010904/DTD/svg10.dtd">
<svg xmlns="http://www.w3.org/2000/svg" version="1.0" width="2048.000000pt" height="2048.000000pt" viewBox="0 0 2048.000000 2048.000000" preserveAspectRatio="xMidYMid meet">
  <g transform="translate(0.000000,2048.000000) scale(0.100000,-0.100000)" fill="#000000" stroke="none">
    <path d="M9758 20475 c-2 -2 -51 -6 -108 -9 -102 -5 -183 -11 -301 -22 -32 -2 -83 -7 -115 -9 -33 -3 -72 -7 -89 -10 -16 -2 -72 -9 -123 -15 -108 -12 -144 -17 -227 -30 -33 -5 -78 -12 -100 -14 -35 -5 -187 -30 -330 -56 -52 -9 -234 -46 -295 -60 -60 -14 -144 -32 -165 -36 -22 -4 -279 -70 -335 -85 -19 -6 -51 -14 -70 -19 -89 -22 -310 -90 -515 -158 -219 -74 -298 -102 -365 -130 -14 -5 -74 -29 -135 -53 -383 -148 -858 -372 -1197 -562 -27 -15 -67 -38 -90 -51 -24 -13 -67 -37 -96 -55 -29 -17 -57 -31 -62 -31 -4 0 -10 -3 -12 -7 -4 -10 -57 -42 -80 -50 -10 -3 -18 -9 -18 -14 0 -5 -4 -9 -9 -9 -5 0 -50 -26 -101 -57 -50 -32 -99 -63 -108 -68 -33 -20 -287 -190 -292 -195 -3 -3 -32 -23 -65 -45 -33 -22 -62 -42 -65 -45 -3 -3 -21 -17 -40 -30 -19 -14 -39 -28 -45 -32 -5 -5 -59 -45 -120 -90 -60 -45 -116 -88 -123 -95 -7 -7 -17 -13 -20 -13 -4 0 -18 -10 -32 -23 -14 -12 -72 -60 -130 -107 -58 -46 -107 -87 -110 -90 -3 -3 -30 -25 -60 -50 -30 -25 -62 -52 -70 -60 -8 -8 -44 -40 -80 -70 -36 -30 -76 -66 -90 -80 -14 -14 -74 -70 -134 -125 -140 -128 -343 -331 -471 -471 -55 -60 -111 -120 -125 -134 -14 -14 -50 -54 -80 -90 -30 -36 -57 -67 -60 -70 -3 -3 -30 -34 -60 -70 -30 -36 -57 -67 -60 -70 -3 -3 -24 -27 -45 -55 -22 -27 -42 -52 -45 -55 -3 -3 -32 -39 -65 -81 -33 -42 -73 -93 -90 -114 -16 -21 -60 -79 -97 -129 -37 -50 -71 -95 -76 -101 -4 -5 -18 -26 -32 -45 -13 -19 -27 -37 -30 -40 -23 -18 -410 -614 -410 -630 0 -5 -3 -10 -7 -12 -10 -4 -42 -57 -50 -80 -3 -10 -9 -18 -14 -18 -5 0 -9 -4 -9 -10 0 -5 -14 -33 -31 -62 -18 -29 -43 -73 -57 -98 -14 -25 -36 -65 -50 -90 -115 -203 -323 -624 -399 -805 -14 -33 -36 -85 -50 -115 -14 -30 -54 -129 -90 -220 -36 -91 -68 -174 -73 -185 -4 -11 -17 -45 -28 -75 -11 -30 -28 -75 -37 -100 -22 -59 -112 -328 -135 -405 -10 -33 -32 -105 -49 -161 -16 -55 -34 -118 -40 -140 -5 -21 -14 -55 -20 -74 -20 -72 -72 -277 -82 -325 -6 -27 -15 -68 -21 -90 -5 -22 -13 -58 -17 -80 -5 -22 -18 -87 -30 -145 -12 -58 -26 -127 -31 -155 -5 -27 -11 -61 -14 -75 -36 -196 -102 -672 -105 -760 -1 -19 -6 -62 -10 -95 -5 -33 -10 -91 -11 -129 0 -39 -3 -73 -6 -77 -25 -41 -24 -1438 1 -1479 2 -3 5 -33 5 -66 2 -60 12 -171 31 -324 6 -48 12 -104 14 -125 2 -22 6 -65 9 -95 3 -30 10 -75 15 -100 6 -25 12 -65 15 -90 9 -77 25 -176 31 -191 3 -8 7 -30 9 -49 5 -42 17 -109 47 -250 12 -58 25 -123 30 -145 4 -22 12 -58 17 -80 6 -22 15 -62 21 -90 10 -51 48 -198 81 -320 6 -22 15 -56 20 -75 4 -19 16 -60 25 -90 10 -30 18 -59 19 -65 7 -36 148 -465 191 -580 15 -38 28 -74 29 -80 4 -12 15 -43 26 -70 4 -11 27 -69 51 -130 147 -380 375 -865 561 -1195 14 -25 36 -65 50 -90 14 -25 39 -69 57 -98 17 -29 31 -57 31 -62 0 -6 4 -10 9 -10 5 0 11 -8 14 -17 6 -18 37 -73 47 -83 3 -3 11 -16 19 -30 58 -101 383 -596 401 -610 3 -3 17 -21 30 -40 14 -19 28 -39 32 -45 5 -5 45 -59 90 -120 45 -60 84 -112 88 -115 3 -3 17 -21 30 -40 13 -19 30 -41 37 -48 7 -8 26 -30 41 -50 15 -21 29 -39 32 -42 3 -3 25 -30 50 -60 25 -30 47 -57 50 -60 3 -3 25 -30 50 -60 25 -30 52 -62 60 -70 8 -8 40 -44 70 -80 30 -35 69 -79 85 -96 17 -17 75 -80 130 -140 133 -143 305 -315 445 -444 62 -58 127 -118 144 -135 17 -16 61 -55 96 -85 36 -30 72 -62 80 -70 8 -8 40 -35 70 -60 30 -25 57 -47 60 -50 3 -3 30 -25 60 -50 30 -25 57 -48 58 -52 2 -5 8 -8 13 -8 8 0 39 -25 83 -65 6 -6 27 -22 46 -35 19 -13 37 -27 40 -30 3 -4 55 -43 115 -88 61 -45 115 -85 120 -90 6 -4 26 -18 45 -32 19 -13 37 -27 40 -30 26 -28 613 -410 630 -410 5 0 10 -3 12 -7 4 -10 57 -42 80 -50 10 -3 18 -9 18 -14 0 -5 4 -9 10 -9 5 0 33 -14 62 -31 29 -18 72 -42 96 -55 23 -13 63 -36 90 -51 333 -188 816 -414 1197 -562 110 -43 135 -53 178 -70 106 -44 592 -203 607 -199 3 1 15 -4 28 -11 21 -11 113 -39 202 -61 19 -5 53 -14 75 -20 67 -19 119 -32 140 -36 11 -2 45 -11 75 -19 30 -9 66 -18 80 -20 14 -3 54 -12 90 -21 36 -8 79 -17 95 -20 17 -2 37 -7 45 -10 26 -9 302 -63 357 -70 18 -2 51 -8 74 -14 22 -6 43 -9 46 -7 2 3 19 1 36 -4 30 -9 121 -23 227 -35 25 -3 68 -10 96 -15 28 -5 55 -9 60 -8 5 1 11 1 14 0 3 -1 26 -4 51 -6 25 -2 59 -6 75 -9 16 -3 63 -8 104 -11 41 -3 86 -7 100 -9 14 -3 72 -7 130 -11 58 -3 130 -9 160 -12 87 -9 1095 -11 1195 -2 50 4 142 11 205 14 63 4 117 8 120 10 3 2 48 6 100 10 52 4 97 8 101 10 3 3 41 7 84 10 43 3 82 8 85 10 4 2 35 7 71 10 35 3 71 8 79 10 8 2 40 7 70 10 30 3 62 8 70 10 8 3 31 7 50 9 32 4 125 20 260 45 30 6 70 13 89 16 19 3 37 8 40 10 4 2 26 6 51 10 25 4 47 8 50 10 3 2 21 6 40 9 19 3 85 17 145 32 61 14 120 28 132 30 12 2 34 9 48 14 14 5 25 7 25 5 0 -2 11 0 25 5 14 5 36 12 48 14 12 2 48 11 79 21 31 9 69 18 84 21 15 3 35 9 46 15 10 5 18 7 18 4 0 -3 8 -1 18 4 11 6 30 12 43 14 13 3 61 17 105 31 45 15 90 28 100 31 11 2 105 33 209 69 105 36 197 68 205 70 25 7 222 83 363 140 169 69 180 73 255 107 35 16 65 29 68 29 12 0 592 283 674 329 53 30 259 145 315 176 28 16 52 31 55 34 3 3 21 15 40 25 82 44 557 348 570 365 3 3 32 24 65 46 86 57 267 189 291 212 7 7 15 13 19 13 4 0 12 6 19 12 7 7 28 24 46 38 51 38 192 149 220 173 14 12 50 42 80 66 30 25 60 50 66 55 6 6 33 29 59 51 26 22 55 47 64 56 9 9 36 34 61 54 174 143 679 648 841 840 19 22 50 58 70 80 20 22 50 56 65 75 16 19 36 42 44 50 9 8 31 35 50 60 19 25 45 56 56 70 12 14 45 54 73 90 29 36 57 72 64 80 7 8 28 35 47 60 19 25 38 50 43 55 7 9 65 89 102 140 8 11 32 43 52 72 21 28 45 61 53 74 8 12 30 42 48 66 17 24 32 47 32 52 0 5 3 11 8 13 4 2 27 34 52 72 24 38 49 74 55 80 6 6 12 13 12 16 0 9 96 155 105 161 5 3 9 10 9 15 -1 5 7 18 16 29 9 11 16 22 15 25 -1 3 3 12 10 20 7 8 24 36 37 63 13 26 28 47 33 47 4 0 8 4 8 9 0 5 32 65 71 133 90 156 195 349 274 508 74 146 194 403 195 415 0 3 11 26 25 53 14 26 25 50 25 54 0 4 11 31 24 60 13 29 38 89 55 133 18 44 45 112 61 150 32 77 130 341 135 365 2 8 16 49 30 90 14 41 28 83 30 92 2 9 8 25 13 35 6 10 10 20 10 23 1 3 3 12 6 20 30 87 152 525 171 610 2 8 10 42 19 75 8 33 18 74 21 92 3 18 10 45 16 60 6 15 10 29 10 31 -1 1 -1 3 0 5 1 3 8 46 13 77 2 14 7 32 10 40 3 8 7 29 9 45 3 17 8 41 11 55 3 14 8 36 10 50 2 14 7 36 10 50 3 14 8 42 11 64 3 21 7 41 9 45 2 3 7 30 10 59 3 30 8 57 10 60 2 4 7 31 10 60 3 30 8 57 10 60 2 4 7 34 10 67 4 33 8 67 11 75 2 8 7 40 9 70 3 30 9 76 14 101 5 25 7 55 5 67 -1 12 0 22 5 22 4 0 7 15 8 33 1 50 15 221 19 227 2 3 6 57 10 120 3 63 10 153 14 200 10 102 7 1063 -3 1205 -4 55 -9 125 -11 155 -2 30 -4 55 -5 55 -1 0 -3 20 -4 45 -3 61 -15 179 -27 265 -5 39 -11 90 -13 115 -3 25 -10 83 -17 130 -7 47 -13 97 -13 113 -1 15 -5 27 -9 27 -5 0 -5 5 -2 10 4 6 2 34 -4 63 -21 107 -34 178 -35 194 -2 19 -7 46 -33 173 -8 41 -16 86 -18 100 -3 23 -13 69 -36 160 -4 19 -13 58 -19 85 -12 53 -75 307 -91 365 -6 19 -12 44 -14 55 -1 11 -12 49 -23 85 -11 36 -35 112 -52 170 -40 131 -130 402 -165 495 -15 39 -28 75 -29 80 -4 12 -15 43 -26 70 -4 11 -27 70 -51 130 -148 383 -374 863 -564 1200 -15 28 -38 68 -50 90 -12 22 -36 64 -54 93 -17 29 -31 57 -31 62 0 4 -3 10 -7 12 -10 4 -42 57 -50 81 -3 9 -9 17 -14 17 -5 0 -9 4 -9 9 0 19 -298 476 -407 625 -24 34 -51 70 -59 81 -28 40 -150 203 -179 240 -16 21 -52 65 -78 99 -64 82 -65 83 -117 146 -25 30 -47 57 -50 60 -3 3 -25 30 -50 60 -25 30 -52 62 -60 70 -8 8 -40 44 -70 80 -30 35 -68 79 -85 96 -16 17 -77 82 -135 144 -141 151 -280 291 -429 430 -68 63 -138 129 -155 145 -17 17 -60 55 -96 85 -36 30 -74 64 -86 75 -12 11 -41 36 -65 55 -23 19 -47 40 -53 45 -6 6 -36 30 -66 55 -30 25 -57 47 -60 50 -3 3 -21 17 -42 32 -20 15 -42 34 -50 41 -7 7 -29 24 -48 37 -19 13 -37 27 -40 30 -3 4 -54 43 -115 88 -60 45 -114 85 -120 90 -5 4 -26 18 -45 32 -19 13 -37 27 -40 30 -3 3 -32 23 -65 45 -33 22 -62 42 -65 45 -14 14 -301 200 -309 200 -5 0 -11 4 -13 9 -3 7 -77 55 -158 102 -14 8 -27 16 -30 19 -10 10 -65 41 -82 47 -10 3 -18 9 -18 14 0 5 -4 9 -10 9 -5 0 -33 14 -62 31 -29 18 -72 42 -96 55 -23 13 -63 36 -90 51 -184 103 -528 276 -767 383 -134 60 -332 141 -560 230 -11 4 -31 12 -45 18 -53 23 -420 147 -540 184 -222 67 -269 81 -300 88 -19 5 -51 13 -70 19 -68 19 -276 72 -325 82 -27 6 -68 15 -90 21 -44 10 -61 14 -250 52 -212 42 -211 42 -412 76 -55 9 -112 16 -193 26 -19 2 -64 8 -100 14 -65 9 -162 21 -210 25 -14 2 -56 6 -95 10 -79 8 -126 12 -240 20 -44 3 -102 8 -130 11 -56 7 -1100 15 -1107 9z" />
  </g>
</svg>
